<?xml version="1.0" encoding="utf-8"?>
<svg width="88px" height="88px" viewBox="0 0 88 88" version="1.1" xmlns:xlink="http://www.w3.org/1999/xlink" xmlns="http://www.w3.org/2000/svg">
  <defs>
    <path d="M88 0L88 0L88 88L0 88L0 0L88 0Z" id="path_1" />
    <clipPath id="clip_1">
      <use xlink:href="#path_1" />
    </clipPath>
  </defs>
  <g id="Amazon Web Services" clip-path="url(#clip_1)">
    <path d="M88 0L88 0L88 88L0 88L0 0L88 0Z" id="Amazon-Web-Services" fill="none" stroke="none" />
    <path d="M24.7995 39.4698C24.7995 40.5643 24.9168 41.4498 25.1222 42.1007C25.3568 42.7515 25.6483 43.461 26.059 44.2292C26.2057 44.4657 26.2643 44.7022 26.2643 44.9093C26.2643 45.2045 26.0883 45.4997 25.7088 45.7967L23.8645 47.0378C23.6005 47.2157 23.3383 47.3037 23.1037 47.3037C22.8103 47.3037 22.5188 47.1552 22.2255 46.8893C21.8148 46.4457 21.4647 45.9727 21.1713 45.4997C20.878 44.9973 20.5865 44.4363 20.2638 43.7562C17.9813 46.475 15.1122 47.8353 11.6582 47.8353C9.19967 47.8353 7.238 47.1258 5.80433 45.7068C4.37067 44.2878 3.63917 42.3958 3.63917 40.0308C3.63917 37.5192 4.51733 35.4787 6.303 33.9423C8.08867 32.406 10.4592 31.636 13.4732 31.636C14.4687 31.636 15.4935 31.724 16.5752 31.8725C17.6568 32.021 18.7697 32.2575 19.9412 32.5233L19.9412 30.3655C19.9412 28.1197 19.4737 26.5522 18.5662 25.6355C17.6293 24.7188 16.049 24.2752 13.7958 24.2752C12.771 24.2752 11.7187 24.3925 10.6352 24.6602C9.55167 24.926 8.49933 25.2505 7.4745 25.6648C7.007 25.872 6.655 25.9893 6.44967 26.0498C6.24433 26.1085 6.09767 26.1378 5.98217 26.1378C5.5715 26.1378 5.368 25.8427 5.368 25.2212L5.368 23.7728C5.368 23.2998 5.42667 22.946 5.57333 22.7388C5.72 22.5317 5.984 22.3245 6.39283 22.1173C7.41767 21.5857 8.646 21.142 10.0815 20.7863C11.5152 20.4013 13.0368 20.2253 14.6465 20.2253C18.1298 20.2253 20.6763 21.0228 22.3153 22.6197C23.925 24.2165 24.7445 26.6402 24.7445 29.8907L24.7445 39.468L24.7995 39.468L24.7995 39.4698ZM12.9158 43.9615C13.882 43.9615 14.8775 43.7837 15.9298 43.4298C16.984 43.076 17.9208 42.4252 18.711 41.5378C19.1785 40.9768 19.5305 40.3553 19.7065 39.6458C19.8825 38.9363 19.9998 38.0783 19.9998 37.0737L19.9998 35.8325C19.151 35.6253 18.2435 35.4475 17.3067 35.3302C16.3698 35.2128 15.4623 35.1523 14.5548 35.1523C12.5932 35.1523 11.1595 35.5373 10.1933 36.3348C9.22717 37.1323 8.75967 38.2562 8.75967 39.7338C8.75967 41.1235 9.11167 42.1575 9.84317 42.867C10.5453 43.6077 11.5702 43.9615 12.9158 43.9615L12.9158 43.9615ZM36.4192 47.1552C35.893 47.1552 35.541 47.0672 35.3063 46.86C35.0717 46.6822 34.8682 46.2697 34.6922 45.7068L27.8135 22.858C27.6375 22.2677 27.5495 21.8827 27.5495 21.6755C27.5495 21.2025 27.7842 20.9367 28.2517 20.9367L31.1208 20.9367C31.6763 20.9367 32.0577 21.0247 32.263 21.2318C32.4977 21.4097 32.6718 21.8222 32.8478 22.385L37.7648 41.954L42.3298 22.385C42.4765 21.7947 42.6525 21.4097 42.8853 21.2318C43.12 21.054 43.5288 20.9367 44.0568 20.9367L46.398 20.9367C46.9535 20.9367 47.3348 21.0247 47.5695 21.2318C47.8042 21.4097 48.0077 21.8222 48.125 22.385L52.7487 42.1905L57.8123 22.385C57.9883 21.7947 58.1937 21.4097 58.3972 21.2318C58.6318 21.054 59.0113 20.9367 59.5393 20.9367L62.2618 20.9367C62.7293 20.9367 62.9933 21.1732 62.9933 21.6755C62.9933 21.824 62.964 21.9707 62.9347 22.1485C62.9053 22.3263 62.8467 22.5628 62.7293 22.8873L55.6765 45.7362C55.5005 46.3265 55.2952 46.7115 55.0623 46.8893C54.8295 47.0672 54.4482 47.1845 53.9495 47.1845L51.4323 47.1845C50.8768 47.1845 50.4955 47.0965 50.2608 46.8893C50.0262 46.6822 49.8227 46.299 49.7053 45.7068L45.1697 26.6402L40.6633 45.6775C40.5167 46.2678 40.3407 46.6528 40.1078 46.86C39.8732 47.0672 39.4643 47.1552 38.9363 47.1552L36.4192 47.1552L36.4192 47.1552ZM74.0282 47.9527C72.5065 47.9527 70.9848 47.7748 69.5218 47.421C68.0588 47.0672 66.9167 46.6822 66.1558 46.2385C65.6883 45.9727 65.3657 45.6775 65.2483 45.4117C65.131 45.1458 65.0723 44.8507 65.0723 44.5848L65.0723 43.0778C65.0723 42.4563 65.307 42.1612 65.7452 42.1612C65.9212 42.1612 66.0972 42.1905 66.2713 42.2492C66.4473 42.3078 66.7095 42.427 67.0028 42.5443C67.9983 42.988 69.08 43.3418 70.2222 43.5783C71.3937 43.8148 72.534 43.9322 73.7055 43.9322C75.5498 43.9322 76.9835 43.6077 77.979 42.9568C78.9745 42.306 79.5007 41.36 79.5007 40.1482C79.5007 39.3213 79.2367 38.6412 78.7105 38.0783C78.1843 37.5173 77.1888 37.015 75.7552 36.542L71.511 35.211C69.3752 34.5308 67.7948 33.5262 66.8287 32.1952C65.8625 30.8953 65.3657 29.447 65.3657 27.9088C65.3657 26.6677 65.6297 25.5732 66.1558 24.6272C66.682 23.6812 67.386 22.8543 68.2623 22.2035C69.1405 21.5233 70.136 21.021 71.3057 20.6672C72.4772 20.3152 73.7055 20.1667 74.9943 20.1667C75.6378 20.1667 76.3107 20.196 76.956 20.284C77.6288 20.372 78.243 20.4912 78.859 20.6085C79.4438 20.757 80.0012 20.9037 80.5273 21.0815C81.0535 21.2593 81.4642 21.4353 81.7575 21.6132C82.1682 21.8497 82.4597 22.0862 82.6357 22.352C82.8117 22.5885 82.8997 22.913 82.8997 23.3273L82.8997 24.717C82.8997 25.3385 82.665 25.663 82.2268 25.663C81.9922 25.663 81.6127 25.5457 81.114 25.3092C79.4457 24.541 77.572 24.156 75.4948 24.156C73.8265 24.156 72.5102 24.4218 71.6027 24.9828C70.6952 25.5438 70.2277 26.4018 70.2277 27.6137C70.2277 28.4405 70.521 29.15 71.1058 29.7128C71.6907 30.2738 72.7742 30.8367 74.3252 31.339L78.4813 32.67C80.5878 33.3502 82.1113 34.2962 83.017 35.508C83.9227 36.7198 84.3627 38.1095 84.3627 39.6458C84.3627 40.9163 84.0987 42.0695 83.6018 43.0742C83.0757 44.0788 82.3717 44.9662 81.466 45.6757C80.5585 46.4145 79.475 46.9462 78.2173 47.3312C76.8955 47.7455 75.5205 47.9527 74.0282 47.9527L74.0282 47.9527Z" id="Shape" fill="#252F3E" fill-rule="evenodd" stroke="none" />
    <path d="M79.5594 62.3187C69.9307 69.5017 55.9405 73.315 43.9102 73.315C27.0527 73.315 11.8617 67.0193 0.388684 56.5547C-0.518816 55.7278 0.300684 54.604 1.38418 55.2548C13.794 62.5258 29.1005 66.9313 44.935 66.9313C55.6179 66.9313 67.3549 64.6855 78.1532 60.0728C79.7647 59.334 81.1397 61.1362 79.5594 62.3187L79.5594 62.3187ZM83.5689 57.7078C82.3387 56.111 75.4325 56.9397 72.3012 57.3228C71.3644 57.4402 71.2177 56.6133 72.0665 55.9918C77.5684 52.0905 86.6122 53.2125 87.6664 54.5142C88.7205 55.8452 87.373 64.9788 82.2232 69.3532C81.433 70.0333 80.6722 69.6777 81.0224 68.7922C82.1939 65.8662 84.799 59.2735 83.5689 57.7078L83.5689 57.7078Z" id="Shape" fill="#FF9900" fill-rule="evenodd" stroke="none" />
  </g>
</svg>