<?xml version="1.0" encoding="utf-8"?>
<svg width="88px" height="88px" viewBox="0 0 88 88" version="1.1" xmlns:xlink="http://www.w3.org/1999/xlink" xmlns="http://www.w3.org/2000/svg">
  <defs>
    <path d="M88 0L88 0L88 88L0 88L0 0L88 0Z" id="path_1" />
    <clipPath id="clip_1">
      <use xlink:href="#path_1" />
    </clipPath>
  </defs>
  <g id="Express Js" clip-path="url(#clip_1)">
    <path d="M88 0L88 0L88 88L0 88L0 0L88 0Z" id="Express-Js" fill="none" stroke="none" />
    <path d="M87.523 19.36L86.027 19.36C84.1773 19.36 82.4349 20.2224 81.3102 21.6902L65.9982 41.7138L50.6862 21.6902C49.5651 20.2224 47.821 19.36 45.973 19.36L44.477 19.36L63.7859 44.609L44.0634 70.4L45.5594 70.4C47.4091 70.4 49.1515 69.5376 50.2744 68.0698L66 47.5059L81.7256 68.0698C82.8485 69.5376 84.5909 70.4 86.4406 70.4L87.9366 70.4L68.2141 44.609L87.523 19.36L87.523 19.36ZM37.4686 60.2659C32.9736 67.0965 24.1243 70.5971 15.664 67.5101C8.22096 64.7944 3.52 57.3954 3.52 49.4718L3.52 47.52L24.64 47.52L24.64 47.52L44 47.52L44 40.2442C44 28.7954 35.5203 18.7722 24.1208 17.7003C11.0405 16.4701 0 26.7696 0 39.6L0 49.4085C0 58.8614 5.6584 67.6491 14.5534 70.8506C26.1747 75.0323 38.3979 68.7914 42.5304 58.08C42.5304 58.08 42.5304 58.08 42.5304 58.08L41.4075 58.08C39.8042 58.08 38.3486 58.9266 37.4686 60.2659L37.4686 60.2659ZM3.52 39.6C3.52 29.4096 11.8096 21.12 22 21.12C32.1904 21.12 40.48 29.4096 40.48 39.6L40.48 44L3.52 44L3.52 39.6L3.52 39.6Z" id="Shape" fill="#FFFFFF" fill-rule="evenodd" stroke="none" />
  </g>
</svg>