<?xml version="1.0" encoding="utf-8"?>
<svg width="88px" height="88px" viewBox="0 0 88 88" version="1.1" xmlns:xlink="http://www.w3.org/1999/xlink" xmlns="http://www.w3.org/2000/svg">
  <defs>
    <path d="M88 0L88 0L88 88L0 88L0 0L88 0Z" id="path_1" />
    <clipPath id="clip_1">
      <use xlink:href="#path_1" />
    </clipPath>
  </defs>
  <g id="Flutter" clip-path="url(#clip_1)">
    <path d="M88 0L88 0L88 88L0 88L0 0L88 0Z" id="Flutter" fill="none" stroke="none" />
    <path d="M47.6667 7.33333L11 44L22 55L69.6667 7.33333L47.6667 7.33333Z" id="Polygon" fill="#40C4FF" fill-rule="evenodd" stroke="none" />
    <path d="M69.6667 40.3333L49.5 60.5L38.5 49.5L47.6667 40.3333L69.6667 40.3333Z" id="Polygon" fill="#40C4FF" fill-rule="evenodd" stroke="none" />
    <path d="M27.4991 60.5002L38.4985 49.5004L49.4983 60.4998L38.4989 71.4996L27.4991 60.5002Z" id="Rectangle" fill="#03A9F4" fill-rule="evenodd" stroke="none" />
    <path d="M69.6667 80.6667L47.6667 80.6667L38.5 71.5L49.5 60.5L69.6667 80.6667Z" id="Polygon" fill="#01579B" fill-rule="evenodd" stroke="none" />
    <path d="M38.5 71.5L55 66L49.5 60.5L38.5 71.5Z" id="Polygon" fill="#084994" fill-rule="evenodd" stroke="none" />
  </g>
</svg>