<?xml version="1.0" encoding="utf-8"?>
<svg width="88px" height="88px" viewBox="0 0 88 88" version="1.1" xmlns:xlink="http://www.w3.org/1999/xlink" xmlns="http://www.w3.org/2000/svg">
  <defs>
    <path d="M88 0L88 0L88 88L0 88L0 0L88 0Z" id="path_1" />
    <clipPath id="clip_1">
      <use xlink:href="#path_1" />
    </clipPath>
  </defs>
  <g id="Google Cloud" clip-path="url(#clip_1)">
    <path d="M88 0L88 0L88 88L0 88L0 0L88 0Z" id="Google-Cloud" fill="none" stroke="none" />
    <path d="M70.0205 33.6582C68.607 28.611 65.769 24.167 61.9593 20.7698L53.5297 29.1995C56.6042 31.702 58.6777 35.3852 59.0553 39.5542L59.0553 42.3188C59.103 42.3188 59.147 42.3042 59.1947 42.3042C63.4517 42.3042 66.9167 45.7692 66.9167 50.0262C66.9167 54.2832 63.4517 57.75 59.1947 57.75C59.147 57.75 59.103 57.7372 59.0553 57.7353L59.0553 57.75L46.8343 57.75L44 57.75L44 69.6667L59.0553 69.6667L59.0553 69.6593C59.103 69.6593 59.147 69.6667 59.1947 69.6667C70.0242 69.6667 78.8333 60.8557 78.8333 50.028C78.8333 43.1988 75.3243 37.1782 70.0205 33.6582L70.0205 33.6582Z" id="Shape" fill="#1976D2" stroke="none" />
    <path d="M35.86 46.915L44.5133 38.2617C44.506 38.2525 44.4987 38.2452 44.4932 38.2378L35.8453 46.8857C35.849 46.8948 35.8545 46.904 35.86 46.915L35.86 46.915Z" id="Shape" fill="#FFE082" fill-opacity="0.5" stroke="none" />
    <path d="M35.86 46.915L44.5133 38.2617C44.506 38.2525 44.4987 38.2452 44.4932 38.2378L35.8453 46.8857C35.849 46.8948 35.8545 46.904 35.86 46.915L35.86 46.915Z" id="Shape" fill="#90CAF9" fill-opacity="0.5" stroke="none" />
    <path d="M44 13.8893C29.0895 13.8893 16.9583 26.0205 16.9583 40.931C16.9583 41.3582 17.0023 41.7743 17.0225 42.196L28.9392 42.196C28.9043 41.778 28.875 41.3582 28.875 40.931C28.875 32.5912 35.6602 25.806 44 25.806C47.6098 25.806 50.9263 27.082 53.5297 29.1995L61.9593 20.7698C57.178 16.5055 50.8952 13.8893 44 13.8893L44 13.8893Z" id="Shape" fill="#FF3D00" stroke="none" />
    <path d="M28.8053 57.75L28.8053 57.75C28.8035 57.75 28.8035 57.75 28.8017 57.75C27.6815 57.75 26.6237 57.4988 25.663 57.0662L17.028 65.7012C20.3152 68.178 24.3852 69.6667 28.8017 69.6667C28.8035 69.6667 28.8035 69.6667 28.8053 69.6667L28.8053 69.6667L44 69.6667L44 57.75L28.8053 57.75L28.8053 57.75Z" id="Shape" fill="#90CAF9" fill-opacity="0.5" stroke="none" />
    <path d="M28.8053 57.75L28.8053 57.75C28.8035 57.75 28.8035 57.75 28.8017 57.75C27.6815 57.75 26.6237 57.4988 25.663 57.0662L17.028 65.7012C20.3152 68.178 24.3852 69.6667 28.8017 69.6667C28.8035 69.6667 28.8035 69.6667 28.8053 69.6667L28.8053 69.6667L44 69.6667L44 57.75L28.8053 57.75L28.8053 57.75Z" id="Shape" fill="#4CAF50" stroke="none" />
    <path d="M21.0833 50.0317C21.0833 45.7783 24.5483 42.3133 28.8017 42.3133C31.9238 42.3133 34.628 44.1888 35.8435 46.8857L44.4913 38.2378C40.8962 33.4675 35.2055 30.3967 28.7998 30.3967C17.985 30.3967 9.16667 39.1967 9.16667 50.0317C9.16667 56.4318 12.2668 62.1133 17.028 65.7012L25.663 57.0662C22.9717 55.8598 21.0833 53.1648 21.0833 50.0317L21.0833 50.0317Z" id="Shape" fill="#FFC107" stroke="none" />
  </g>
</svg>