<?xml version="1.0" encoding="utf-8"?>
<svg width="88px" height="88px" viewBox="0 0 88 88" version="1.1" xmlns:xlink="http://www.w3.org/1999/xlink" xmlns="http://www.w3.org/2000/svg">
  <defs>
    <path d="M88 0L88 0L88 88L0 88L0 0L88 0Z" id="path_1" />
    <clipPath id="clip_1">
      <use xlink:href="#path_1" />
    </clipPath>
  </defs>
  <g id="Java" clip-path="url(#clip_1)">
    <path d="M88 0L88 0L88 88L0 88L0 0L88 0Z" id="Java" fill="none" stroke="none" />
    <path d="M43.3584 45.6464C41.5287 42.6965 40.2013 40.2508 38.3625 35.6455C35.2532 27.8667 57.2734 20.8377 48.345 7.3315C52.2152 16.6613 34.4538 22.429 32.8038 30.1987C31.295 37.345 43.3492 45.6464 43.3584 45.6464L43.3584 45.6464Z" id="Shape" fill="#F44336" stroke="none" />
    <path d="M43.7764 31.6617C43.4244 36.2743 47.8629 38.7328 47.9912 42.1025C48.0939 44.8452 45.3384 47.1313 45.3384 47.1313C45.3384 47.1313 50.3397 46.1487 51.8999 41.965C53.6324 37.3193 48.5375 34.1385 49.0619 30.4187C49.5514 26.8657 60.1187 20.2565 60.1187 20.2565C60.1187 20.2565 44.5702 21.2868 43.7764 31.6617L43.7764 31.6617Z" id="Shape" fill="#F44336" stroke="none" />
    <path d="M58.8178 45.9341C62.0332 45.2118 64.7445 47.2594 64.7445 49.6188C64.7445 54.9368 57.3732 59.9634 57.3732 59.9634C57.3732 59.9634 68.7848 58.6032 68.7848 49.8717C68.7848 44.0972 63.1807 42.6545 58.8178 45.9341L58.8178 45.9341ZM53.4007 50.2237C53.4007 50.2237 56.9589 47.6884 57.9067 46.737C49.1752 48.5903 29.2392 48.8397 29.2392 47.2301C29.2392 45.7471 35.6682 44.2274 35.6682 44.2274C35.6682 44.2274 21.4188 44.022 21.4188 48.2255C21.4188 52.6069 40.0716 52.9203 53.4007 50.2237L53.4007 50.2237ZM51.2123 54.2134C42.9464 56.9613 27.7218 56.0833 32.2314 52.393C30.0353 52.393 26.7795 54.1584 26.7795 55.8559C26.7795 59.2602 43.2452 61.889 55.4323 56.9045L51.2123 54.2134L51.2123 54.2134ZM34.2573 60.0215C31.2582 60.0215 29.3168 61.9537 29.3168 63.3616C29.3168 67.7448 47.2088 68.1866 54.2977 63.7374L49.7917 60.7456C44.4957 63.0738 31.1922 63.3946 34.2573 60.0215L34.2573 60.0215ZM66.5112 67.1584C66.5112 65.4426 64.5773 64.6341 63.8843 64.2473C67.9687 74.097 22.973 73.3326 22.973 67.5177C22.973 66.196 26.2856 64.9018 29.347 65.5141L26.7439 63.976C20.643 63.0191 16.5 65.701 16.5 67.8642C16.5 77.9523 66.5112 77.4665 66.5112 67.1584L66.5112 67.1584ZM71.4964 70.774C63.896 78.2809 44.6236 81.0161 25.2432 76.3781C44.6236 84.6329 71.4047 79.984 71.4964 70.774L71.4964 70.774Z" id="Group" fill="#1565C0" fill-rule="evenodd" stroke="none" />
  </g>
</svg>