<?xml version="1.0" encoding="utf-8"?>
<svg width="88px" height="88px" viewBox="0 0 88 88" version="1.1" xmlns:xlink="http://www.w3.org/1999/xlink" xmlns="http://www.w3.org/2000/svg">
  <defs>
    <path d="M88 0L88 0L88 88L0 88L0 0L88 0Z" id="path_1" />
    <clipPath id="clip_1">
      <use xlink:href="#path_1" />
    </clipPath>
  </defs>
  <g id="Mongodb" clip-path="url(#clip_1)">
    <path d="M88 0L88 0L88 88L0 88L0 0L88 0Z" id="Mongodb" fill="none" stroke="none" />
    <path d="M77 31.7167C77 69.3 44 80.6667 44 80.6667C44 80.6667 11 69.3 11 31.7167C11 27.1333 11.3667 23.2833 11.7333 20.1667C12.2833 15.5833 15.4 11.9167 19.8 10.8167C25.4833 9.16667 34.4667 7.33333 44 7.33333C53.5333 7.33333 62.5167 9.16667 68.3833 10.8167C72.7833 11.9167 75.9 15.7667 76.45 20.1667C76.6333 23.2833 77 27.3167 77 31.7167L77 31.7167Z" id="Shape" fill="#5D4037" stroke="none" />
    <path d="M44 12.8333C52.9833 12.8333 61.4167 14.6667 66.9167 16.1333C69.1167 16.6833 70.5833 18.5167 70.95 20.9C71.3167 24.3833 71.5 28.05 71.5 31.7167C71.5 60.3167 50.4167 71.8667 44 74.6167C37.5833 71.6833 16.5 60.1333 16.5 31.7167C16.5 28.05 16.6833 24.3833 17.05 20.9C17.2333 18.5167 18.8833 16.6833 21.0833 16.1333C26.5833 14.6667 35.0167 12.8333 44 12.8333M44 7.33333C34.4667 7.33333 25.4833 9.16667 19.6167 10.8167C15.4 11.9167 12.1 15.7667 11.7333 20.1667C11.3667 23.2833 11 27.3167 11 31.7167C11 69.3 44 80.6667 44 80.6667C44 80.6667 77 69.3 77 31.7167C77 27.1333 76.6333 23.2833 76.2667 20.1667C75.7167 15.5833 72.6 11.9167 68.2 10.8167C62.5167 9.16667 53.5333 7.33333 44 7.33333L44 7.33333L44 7.33333Z" id="Shape" fill="#4CAF50" fill-rule="evenodd" stroke="none" />
    <path d="M42.1667 51.3333L45.8333 51.3333L45.8333 66L42.1667 66L42.1667 51.3333Z" id="Shape" fill="#DCEDC8" stroke="none" />
    <path d="M44 18.3333C44 18.3333 33 27.5 33 42.1667C33 51.7 39.05 57.75 42.1667 60.5L44 55L45.8333 60.5C48.95 57.75 55 51.7 55 42.1667C55 27.5 44 18.3333 44 18.3333L44 18.3333Z" id="Shape" fill="#4CAF50" stroke="none" />
    <path d="M44 18.3333C44 18.3333 33 27.5 33 42.1667C33 51.7 39.05 57.75 42.1667 60.5L44 55L44 18.3333L44 18.3333Z" id="Shape" fill="#81C784" stroke="none" />
  </g>
</svg>