<?xml version="1.0" encoding="utf-8"?>
<svg width="88px" height="88px" viewBox="0 0 88 88" version="1.1" xmlns:xlink="http://www.w3.org/1999/xlink" xmlns="http://www.w3.org/2000/svg">
  <defs>
    <linearGradient gradientUnits="objectBoundingBox" x1="0.5" y1="1.33285" x2="0.5" y2="-0.036675" id="gradient_1">
      <stop offset="0%" stop-color="#3079D6" />
      <stop offset="100%" stop-color="#297CD2" />
    </linearGradient>
    <linearGradient gradientUnits="objectBoundingBox" x1="0.5" y1="-0.34261113" x2="0.5" y2="1.2985556" id="gradient_2">
      <stop offset="0%" stop-color="#FED100" />
      <stop offset="3.3%" stop-color="#FCCA00" />
      <stop offset="22.1%" stop-color="#F3A400" />
      <stop offset="40.8%" stop-color="#EC8601" />
      <stop offset="59.2%" stop-color="#E77101" />
      <stop offset="77.100006%" stop-color="#E46401" />
      <stop offset="94.1%" stop-color="#E36001" />
    </linearGradient>
    <linearGradient gradientUnits="objectBoundingBox" x1="0.49999994" y1="-0.1439622" x2="0.49999994" y2="1.4364336" id="gradient_3">
      <stop offset="0%" stop-color="#3079D6" />
      <stop offset="100%" stop-color="#297CD2" />
    </linearGradient>
    <path d="M88 0L88 0L88 88L0 88L0 0L88 0Z" id="path_1" />
    <clipPath id="clip_1">
      <use xlink:href="#path_1" />
    </clipPath>
  </defs>
  <g id="My Sql" clip-path="url(#clip_1)">
    <path d="M88 0L88 0L88 88L0 88L0 0L88 0Z" id="My-Sql" fill="none" stroke="none" />
    <path d="M7.33333 44C7.33333 23.7496 23.7496 7.33333 44 7.33333C64.2504 7.33333 80.6667 23.7496 80.6667 44C80.6667 64.2504 64.2504 80.6667 44 80.6667C23.7496 80.6667 7.33333 64.2504 7.33333 44Z" id="Circle" fill="url(#gradient_1)" fill-rule="evenodd" stroke="none" />
    <path d="M11 44C11 25.7746 25.7746 11 44 11C62.2254 11 77 25.7746 77 44C77 62.2254 62.2254 77 44 77C25.7746 77 11 62.2254 11 44Z" id="Circle" fill="url(#gradient_2)" fill-rule="evenodd" stroke="none" />
    <path d="M54.4317 58.575C54.4317 66.55 48.7667 73.205 41.25 74.745L40.2417 74.9283C24.805 73.095 12.8333 59.95 12.8333 44C12.8333 26.785 26.785 12.8333 44 12.8333C44.3117 12.8333 44.6417 12.8333 44.9533 12.8517C38.5367 15.1067 33.9167 21.2117 33.9167 28.4167C33.9167 31.1483 34.5767 33.7333 35.7683 36.0067C37.345 39.05 39.985 41.3967 43.0467 42.9367L45.2833 44.055C48.345 45.595 51.0033 47.9417 52.58 50.985C53.7533 53.2583 54.4317 55.8433 54.4317 58.575L54.4317 58.575Z" id="Shape" fill="url(#gradient_3)" stroke="none" />
    <path d="M70.5063 50.468C69.0837 48.7685 66.8067 47.1148 65.3565 44.7205C65.153 44.3832 65.2593 43.9743 65.604 43.791C67.4648 42.7937 67.793 42.9752 69.6667 42.1667C67.8333 40.3333 65.9322 39.6733 62.9182 38.9143C62.3278 38.7915 61.9887 38.2965 61.8897 37.752C61.7283 37.1598 61.3855 36.157 61.0262 35.3558C58.421 30.0923 55.1742 23.21 48.5852 22.693C48.1507 22.6875 47.7363 22.5115 47.4485 22.2218C46.618 21.4298 45.4557 20.449 44.3868 20.2877C44.176 20.3078 44.2823 20.2363 44.1192 20.3867C43.692 20.8872 43.7782 20.9055 44.0715 21.5417C44.4675 22.2182 45.2228 22.9918 45.9653 23.7563C46.7188 24.7298 46.1963 26.1543 46.6913 27.247C46.8948 28.0225 47.322 28.9392 47.7968 29.5002C48.026 29.7953 48.0957 30.1693 48.0242 30.5085C47.4962 33.033 47.124 35.7555 47.6355 38.2837C47.6465 38.5532 47.9105 38.654 48.1048 38.5568C48.1653 38.5092 48.1635 38.5422 48.3982 38.1297C48.686 37.488 50.7375 33.5628 51.3333 34.8333C52.2005 37.653 53.405 43.1383 55.957 44.8342C56.0652 44.88 55.9808 45.0578 55.8745 44.9973C53.2088 43.6205 51.051 40.0803 50.4148 37.6933C49.9198 37.7355 49.4762 38.137 49.2268 38.5972C48.851 39.9153 46.9168 39.9832 46.5703 38.5733C46.431 38.027 46.3173 37.4733 46.2642 36.9142C46.0607 34.8792 46.189 31.867 46.651 30.3472C45.3603 28.9538 44.638 26.2643 44.8085 24.8563C44.0513 24.09 43.2557 23.3365 42.6635 22.3923C41.5488 20.9733 42.5242 18.4837 44.4363 18.5735C46.1303 18.7147 47.5017 19.8697 48.708 20.9587C50.0445 20.8395 52.6918 21.7727 54.175 22.7755C57.5373 24.959 59.3065 28.7082 61.2278 32.0852C61.9777 33.6178 63.3215 36.2102 63.2867 37.4458C66.7077 38.5055 70.5742 39.787 72.5248 43.0302C72.5597 43.0943 72.5267 43.1768 72.4552 43.197C72.4552 43.197 67.1385 44.8653 67.1385 44.8653L70.6603 50.3653C70.7208 50.457 70.5742 50.5707 70.5063 50.468L70.5063 50.468L70.5063 50.468Z" id="Shape" fill="#FFFFFF" stroke="none" />
    <path d="M49.5843 25.0947L51.1115 27.2745C51.1115 27.2763 52.855 24.805 49.5843 25.0947L49.5843 25.0947Z" id="Shape" fill="#FFFFFF" stroke="none" />
    <path d="M17.897 36.7968C19.3197 38.4963 21.5967 40.15 23.0468 42.5443C23.2503 42.8817 23.144 43.2905 22.7993 43.4738C20.9385 44.4693 20.6122 44.2878 18.7385 45.0982C20.5718 46.9315 22.473 47.5915 25.487 48.3505C26.0773 48.4733 26.4165 48.9683 26.5155 49.5128C26.6768 50.105 27.0197 51.1078 27.379 51.909C29.9842 57.1725 33.231 64.0548 39.82 64.5718C40.2545 64.5773 40.6688 64.7533 40.9567 65.043C41.7872 65.835 42.9495 66.8158 44.0183 66.9772C44.2292 66.957 44.1228 67.0285 44.286 66.8782C44.7132 66.3777 44.627 66.3593 44.3337 65.7232C43.9377 65.0467 43.1823 64.273 42.4398 63.5085C41.6863 62.535 42.2088 61.1105 41.7138 60.0178C41.5103 59.2423 41.0832 58.3257 40.6083 57.7647C40.3792 57.4695 40.3095 57.0955 40.381 56.7563C40.909 54.2318 41.2812 51.5093 40.7697 48.9812C40.7587 48.7117 40.4947 48.6108 40.3003 48.708C40.2398 48.7557 40.2417 48.7227 40.007 49.1352C39.7173 49.7732 37.6658 53.7002 37.07 52.4278C36.2028 49.6082 34.9983 44.1228 32.4463 42.427C32.3382 42.3812 32.4225 42.2033 32.5288 42.2638C35.1945 43.6407 37.3523 47.1808 37.9885 49.5678C38.4835 49.5257 38.9272 49.1242 39.1765 48.664C39.5523 47.3458 41.4865 47.278 41.833 48.6878C41.9723 49.2342 42.086 49.7878 42.1392 50.347C42.3427 52.382 42.2143 55.3942 41.7523 56.914C43.043 58.3073 43.7653 60.9968 43.5948 62.4048C44.352 63.1712 45.1477 63.9247 45.7398 64.8688C46.8545 66.2878 45.8792 68.7775 43.967 68.6877C42.273 68.5465 40.9017 67.3915 39.6953 66.3025C38.3588 66.4217 35.7115 65.4885 34.2283 64.4857C30.866 62.3022 29.0968 58.553 27.1755 55.176C26.4257 53.6433 25.0818 51.051 25.1167 49.8153C21.6957 48.7557 17.8292 47.4742 15.8785 44.231C15.8437 44.1668 15.8767 44.0843 15.9482 44.0642C15.9482 44.0642 21.2648 42.3958 21.2648 42.3958L17.743 36.8958C17.6825 36.8078 17.8292 36.696 17.897 36.7968L17.897 36.7968L17.897 36.7968Z" id="Shape" fill="#FFFFFF" stroke="none" />
    <path d="M38.819 62.1702L37.2918 59.9903C37.2937 59.9903 35.5483 62.4617 38.819 62.1702L38.819 62.1702Z" id="Shape" fill="#FFFFFF" stroke="none" />
    <path d="M37.2293 76.4069L36.8975 74.603L41.0847 73.8348C48.2747 72.3627 53.5068 65.9427 53.5068 58.573C53.5068 56.0449 52.922 53.636 51.767 51.4105C50.3591 48.6972 47.9777 46.4368 44.8758 44.8767L42.6411 43.753C39.1927 42.0205 36.5308 39.4851 34.9469 36.4273C33.6728 33.9689 33 31.2007 33 28.4159C33 20.1791 38.8481 13.0038 46.9071 11.352L47.2737 13.1486C40.0654 14.6262 34.8333 21.0444 34.8333 28.4159C34.8333 30.944 35.4181 33.3529 36.5748 35.5785C37.9828 38.2935 40.3642 40.5521 43.466 42.1122L45.7008 43.236C49.1491 44.9684 51.8092 47.5038 53.395 50.5617C54.6672 53.0164 55.3419 55.7846 55.3419 58.5693C55.3419 66.8061 49.4938 73.9815 41.4348 75.6332L37.2293 76.4069L37.2293 76.4069Z" id="Group" fill="#FFFFFF" stroke="none" />
    <path d="M44 14.6667C60.1737 14.6667 73.3333 27.8263 73.3333 44C73.3333 60.1737 60.1737 73.3333 44 73.3333C27.8263 73.3333 14.6667 60.1737 14.6667 44C14.6667 27.8263 27.8263 14.6667 44 14.6667M44 11C25.7748 11 11 25.7748 11 44C11 62.2252 25.7748 77 44 77C62.2252 77 77 62.2252 77 44C77 25.7748 62.2252 11 44 11L44 11L44 11Z" id="Shape" fill="#FFFFFF" fill-rule="evenodd" stroke="none" />
  </g>
</svg>