<?xml version="1.0" encoding="utf-8"?>
<svg width="88px" height="88px" viewBox="0 0 88 88" version="1.1" xmlns:xlink="http://www.w3.org/1999/xlink" xmlns="http://www.w3.org/2000/svg">
  <defs>
    <path d="M88 0L88 0L88 88L0 88L0 0L88 0Z" id="path_1" />
    <clipPath id="clip_1">
      <use xlink:href="#path_1" />
    </clipPath>
  </defs>
  <g id="Node Js" clip-path="url(#clip_1)">
    <path d="M88 0L88 0L88 88L0 88L0 0L88 0Z" id="Node-Js" fill="none" stroke="none" />
    <path d="M44.0128 83.2682C42.9605 83.2682 41.9173 82.9932 40.9952 82.4615L31.3885 76.7727C29.953 75.9697 30.6533 75.6855 31.1263 75.5223C33.0403 74.8532 33.4272 74.701 35.4695 73.5405C35.684 73.4177 35.9645 73.4617 36.1845 73.5918L43.5655 77.9717C43.8313 78.1165 44.2108 78.1165 44.4565 77.9717L73.2343 61.3598C73.5002 61.2077 73.6743 60.8997 73.6743 60.5825L73.6743 27.3753C73.6743 27.0435 73.502 26.7483 73.2288 26.5833L44.4638 9.98433C44.198 9.82667 43.8442 9.82667 43.5783 9.98433L14.817 26.5815C14.5383 26.7392 14.3605 27.049 14.3605 27.3662L14.3605 60.5752C14.3605 60.8923 14.5328 61.1948 14.8078 61.3452L22.6893 65.8973C26.9683 68.0368 29.5827 65.516 29.5827 62.9805L29.5827 30.206C29.5827 29.7385 29.9493 29.3773 30.4187 29.3773L34.0633 29.3773C34.518 29.3773 34.892 29.7367 34.892 30.206L34.892 62.997C34.892 68.7023 31.7808 71.9803 26.3707 71.9803C24.706 71.9803 23.3952 71.9803 19.7358 70.18L12.1862 65.8295C10.3198 64.7478 9.16667 62.7293 9.16667 60.577L9.16667 27.368C9.16667 25.2065 10.3198 23.1898 12.1843 22.1228L40.9933 5.50367C42.8157 4.47333 45.2357 4.47333 47.0452 5.50367L75.8175 22.1302C77.6728 23.2027 78.8333 25.2138 78.8333 27.3753L78.8333 60.5843C78.8333 62.7385 77.6728 64.7478 75.8157 65.8295L47.0433 82.4468C46.1212 82.9803 45.0762 83.2535 44.011 83.2535" id="Shape" fill="#21A366" stroke="none" />
    <path d="M52.9027 60.3845C40.3113 60.3845 37.6713 54.604 37.6713 49.7567C37.6713 49.2965 38.0435 48.928 38.5055 48.928L42.2235 48.928C42.6342 48.928 42.9807 49.2268 43.0448 49.632C43.6058 53.4197 45.2778 55.33 52.8917 55.33C58.9563 55.33 61.5358 53.9605 61.5358 50.743C61.5358 48.8913 60.8007 47.5163 51.3792 46.5942C43.4977 45.8168 38.6283 44.0807 38.6283 37.7777C38.6283 31.9715 43.527 28.5138 51.7312 28.5138C60.9455 28.5138 65.5123 31.713 66.088 38.5843C66.11 38.8227 66.0238 39.0518 65.8643 39.226C65.7067 39.391 65.483 39.4918 65.252 39.4918L61.5138 39.4918C61.1252 39.4918 60.786 39.2187 60.7072 38.8428C59.807 34.859 57.6308 33.5848 51.7165 33.5848C45.0963 33.5848 44.3263 35.8893 44.3263 37.6182C44.3263 39.7137 45.2338 40.326 54.1658 41.5085C63.0117 42.6818 67.2118 44.3392 67.2118 50.556C67.2118 56.8223 61.9813 60.4175 52.8623 60.4175" id="Shape" fill="#21A366" stroke="none" />
  </g>
</svg>