<?xml version="1.0" encoding="utf-8"?>
<svg width="88px" height="88px" viewBox="0 0 88 88" version="1.1" xmlns:xlink="http://www.w3.org/1999/xlink" xmlns="http://www.w3.org/2000/svg">
  <defs>
    <path d="M88 0L88 0L88 88L0 88L0 0L88 0Z" id="path_1" />
    <clipPath id="clip_1">
      <use xlink:href="#path_1" />
    </clipPath>
  </defs>
  <g id="Oracle Logo" clip-path="url(#clip_1)">
    <path d="M88 0L88 0L88 88L0 88L0 0L88 0Z" id="Oracle-Logo" fill="none" stroke="none" />
    <path d="M5.24517 40.3297L10.593 40.3297C12.518 40.3297 14.7382 41.9723 14.7382 43.9963C14.7382 46.0203 12.5198 47.663 10.593 47.663L5.24517 47.663C3.32017 47.663 1.83333 46.0222 1.83333 43.9963C1.83333 41.9705 3.32017 40.3297 5.24517 40.3297L5.24517 40.3297ZM78.8718 38.4963C76.3033 38.4963 74.25 40.9585 74.25 43.9963C74.25 47.0342 76.3217 49.4963 78.8718 49.4963L86.24 49.4963L88 47.663L78.8333 47.663C77.187 47.5768 76.4702 46.4933 76.0833 44.913L86.24 44.913L88 43.0797L76.0833 43.0797C76.4738 41.5012 77.1687 40.3388 78.8333 40.3297L86.24 40.3297L88 38.4963L78.8718 38.4963L78.8718 38.4963ZM62.3333 38.4963L62.3333 48.444C62.3333 48.7153 62.5075 48.9793 62.7018 49.181C62.8962 49.3827 63.1583 49.4963 63.4443 49.4963L70.6567 49.5L72.49 47.6667L64.1667 47.663L64.1667 38.5L62.3333 38.4963L62.3333 38.4963ZM51.0437 38.4963C48.1268 38.4963 45.8168 40.964 45.8168 44.0018C45.8168 47.0397 48.1268 49.4963 51.0437 49.4963L57.7335 49.4743L59.84 47.663L51.0052 47.663C49.0802 47.663 47.6318 46.024 47.6318 43.9982C47.6318 41.9723 49.0802 40.3297 51.0052 40.3297L57.7683 40.359L59.84 38.4963L51.0437 38.4963L51.0437 38.4963ZM38.5 38.4963C38.027 38.4963 37.543 38.8905 37.2717 39.3818L32.0833 49.4963L33.9167 49.4963L38.5 40.3297L41.6002 45.8297L36.74 45.8297L38.4652 47.6263L42.4637 47.6153L43.67 49.4945L45.6518 49.478L39.644 39.3818C39.2223 38.7053 38.9583 38.4963 38.5 38.4963L38.5 38.4963ZM18.3333 38.4963L18.3333 49.4963L20.1667 49.4963L20.1667 40.3297L25.6667 40.3297C26.6108 40.3297 27.5 41.1803 27.5 42.163C27.5 43.1457 26.6108 43.9963 25.6667 43.9963L21.0833 43.9963L27.4652 49.4963L30.25 49.4963L25.6667 45.8297L26.2845 45.8132C27.6412 45.815 29.3333 44.2182 29.3333 42.163C29.3333 40.1078 28.0738 38.522 26.4862 38.4963L18.3333 38.4963L18.3333 38.4963ZM5.28367 38.4963C2.36683 38.4963 0 40.9603 0 43.9963C0 47.0323 2.36683 49.4963 5.28367 49.4963L10.56 49.4963C13.4768 49.4963 16.5 47.0342 16.5 43.9963C16.5 40.9585 13.4768 38.4963 10.56 38.4963L5.28367 38.4963L5.28367 38.4963Z" id="Shape" fill="#EF0F14" fill-rule="evenodd" stroke="none" />
  </g>
</svg>