<?xml version="1.0" encoding="utf-8"?>
<svg width="88px" height="88px" viewBox="0 0 88 88" version="1.1" xmlns:xlink="http://www.w3.org/1999/xlink" xmlns="http://www.w3.org/2000/svg">
  <defs>
    <path d="M88 0L88 0L88 88L0 88L0 0L88 0Z" id="path_1" />
    <clipPath id="clip_1">
      <use xlink:href="#path_1" />
    </clipPath>
  </defs>
  <g id="Python" clip-path="url(#clip_1)">
    <path d="M88 0L88 0L88 88L0 88L0 0L88 0Z" id="Python" fill="none" stroke="none" />
    <path d="M44.0862 9.16667C41.2353 9.17584 39.259 9.427 36.8702 9.8395C29.8155 11.0678 28.5303 13.6473 28.5303 18.4012L28.5303 25.6667L45.0303 25.6667L45.0303 29.3333L27.9033 29.3333L19.9283 29.3333C15.0957 29.3333 10.8662 31.6103 9.52601 37.0682C8.01168 43.3327 7.94385 47.256 9.52601 53.7973C10.7268 58.6758 13.3723 62.3333 18.2068 62.3333L24.8655 62.3333L24.8655 52.976C24.8655 47.5383 29.7898 42.1667 35.4328 42.1667L48.6988 42.1667C53.3244 42.1667 57.8655 38.753 57.8655 34.1422L57.8655 18.4012C57.8655 13.9297 54.6407 10.5857 50.1325 9.83584C50.2443 9.82484 46.9132 9.15567 44.0862 9.16667L44.0862 9.16667ZM34.9488 16.5C36.454 16.5 37.6988 17.7412 37.6988 19.2537C37.6988 20.7808 36.454 22 34.9488 22C33.4143 22 32.1988 20.7827 32.1988 19.2537C32.1988 17.7467 33.4143 16.5 34.9488 16.5L34.9488 16.5Z" id="Shape" fill="#0277BD" fill-rule="evenodd" stroke="none" />
    <path d="M42.3097 78.8333C45.1605 78.8242 47.1368 78.573 49.5257 78.1605C56.5803 76.9322 57.8655 74.3527 57.8655 69.5988L57.8655 62.3333L41.3655 62.3333L41.3655 58.6667L58.4943 58.6667L66.4693 58.6667C71.302 58.6667 75.5315 56.3897 76.8717 50.9318C78.386 44.6673 78.4538 40.744 76.8717 34.2027C75.669 29.3242 73.0235 25.6667 68.189 25.6667L61.5303 25.6667L61.5303 35.024C61.5303 40.4617 56.606 45.8333 50.963 45.8333L37.697 45.8333C33.0715 45.8333 28.5303 49.247 28.5303 53.8578L28.5303 69.5988C28.5303 74.0703 31.7552 77.4143 36.2633 78.1642C36.1515 78.1752 39.4827 78.8443 42.3097 78.8333L42.3097 78.8333ZM51.4488 71.5C49.9437 71.5 48.6988 70.2588 48.6988 68.7463C48.6988 67.2192 49.9437 66 51.4488 66C52.9833 66 54.1988 67.2173 54.1988 68.7463C54.1988 70.2533 52.9815 71.5 51.4488 71.5L51.4488 71.5Z" id="Shape" fill="#FFC107" fill-rule="evenodd" stroke="none" />
  </g>
</svg>