<?xml version="1.0" encoding="utf-8"?>
<svg width="88px" height="88px" viewBox="0 0 88 88" version="1.1" xmlns:xlink="http://www.w3.org/1999/xlink" xmlns="http://www.w3.org/2000/svg">
  <defs>
    <linearGradient gradientUnits="objectBoundingBox" x1="0.5" y1="-0.06558347" x2="0.5" y2="0.8935001" id="gradient_1">
      <stop offset="0%" stop-color="#6DC7FF" />
      <stop offset="100%" stop-color="#E6ABFF" />
    </linearGradient>
    <linearGradient gradientUnits="objectBoundingBox" x1="0.5" y1="-0.023676783" x2="0.5" y2="0.9568894" id="gradient_2">
      <stop offset="0%" stop-color="#1A6DFF" />
      <stop offset="100%" stop-color="#C822FF" />
    </linearGradient>
    <path d="M88 0L88 0L88 88L0 88L0 0L88 0Z" id="path_1" />
    <clipPath id="clip_1">
      <use xlink:href="#path_1" />
    </clipPath>
  </defs>
  <g id="React Native" clip-path="url(#clip_1)">
    <path d="M88 0L88 0L88 88L0 88L0 0L88 0Z" id="React-Native" fill="none" stroke="none" />
    <path d="M35.75 44C35.75 39.4436 39.4436 35.75 44 35.75C48.5564 35.75 52.25 39.4436 52.25 44C52.25 48.5564 48.5564 52.25 44 52.25C39.4436 52.25 35.75 48.5564 35.75 44Z" id="Circle" fill="url(#gradient_1)" fill-rule="evenodd" stroke="none" />
    <path d="M79.75 44C79.75 38.8328 73.9159 34.3516 64.8271 31.636C65.131 30.2184 65.3867 28.8241 65.5476 27.4904C66.451 19.9513 64.8835 14.6713 61.1325 12.6225C57.3801 10.5751 52.0932 12.111 46.2399 16.9483C45.4919 17.5656 44.7452 18.238 44 18.942C43.2547 18.2366 42.5081 17.5656 41.7601 16.9483C35.9068 12.111 30.6171 10.5765 26.8675 12.6225C23.1165 14.6699 21.549 19.9499 22.4524 27.4904C22.6119 28.8255 22.869 30.2184 23.1729 31.636C14.0841 34.3516 8.25 38.8328 8.25 44C8.25 49.1673 14.0841 53.6484 23.1729 56.364C22.869 57.7816 22.6133 59.1759 22.4524 60.5096C21.549 68.0488 23.1165 73.3288 26.8675 75.3775C27.9524 75.9701 29.1638 76.2616 30.481 76.2616C33.7219 76.2616 37.5994 74.492 41.7601 71.0531C42.5081 70.4358 43.2548 69.7634 44 69.0594C44.7453 69.7648 45.4919 70.4358 46.2399 71.0531C50.4006 74.492 54.2781 76.2616 57.519 76.2616C58.8363 76.2616 60.049 75.9688 61.1325 75.3775C64.8835 73.3301 66.451 68.0501 65.5476 60.5096C65.3881 59.1745 65.131 57.7816 64.8271 56.364C73.9159 53.6484 79.75 49.1673 79.75 44L79.75 44ZM47.9902 19.0658C52.844 15.0549 57.1546 13.5836 59.8139 15.0356C62.4731 16.4863 63.5662 20.9069 62.8169 27.1604C62.6725 28.369 62.4415 29.6299 62.172 30.9128C59.2611 30.1991 56.0807 29.6546 52.6955 29.3095C50.545 26.1814 48.2749 23.3269 45.947 20.878C46.6262 20.2373 47.3082 19.6295 47.9902 19.0658L47.9902 19.0658ZM54.8611 49.9304C53.6882 52.0781 52.4411 54.131 51.1459 56.0821C48.8758 56.2719 46.4901 56.375 44 56.375C41.5099 56.375 39.1242 56.2719 36.8527 56.0821C35.5589 54.1296 34.3104 52.0781 33.1375 49.9304C32.0595 47.9573 31.0764 45.9731 30.1922 44C31.0764 42.0283 32.0595 40.0441 33.1375 38.0696C34.3104 35.9219 35.5575 33.869 36.8527 31.9179C39.1242 31.7281 41.5099 31.625 44 31.625C46.4901 31.625 48.8758 31.7281 51.1472 31.9179C52.4411 33.8704 53.6896 35.9219 54.8625 38.0696C55.9405 40.0428 56.9236 42.0269 57.8077 44C56.9236 45.9718 55.9391 47.9559 54.8611 49.9304L54.8611 49.9304ZM59.2322 47.4196C60.1672 49.8108 60.9345 52.1551 61.5367 54.4266C59.4137 54.9436 57.123 55.3809 54.6494 55.704C55.5527 54.2603 56.4369 52.7835 57.2742 51.2476C57.9714 49.9758 58.6149 48.697 59.2322 47.4196L59.2322 47.4196ZM44 65.1791C42.251 63.3353 40.5323 61.2425 38.8726 58.9738C40.5446 59.0714 42.2537 59.125 44 59.125C45.7463 59.125 47.4554 59.0714 49.1274 58.9738C47.4678 61.2425 45.749 63.3353 44 65.1791L44 65.1791ZM33.3493 55.704C30.8756 55.3809 28.5849 54.9436 26.4619 54.4266C27.0641 52.1551 27.8314 49.8094 28.7664 47.4196C29.3851 48.6984 30.0286 49.9758 30.723 51.249C31.5618 52.7835 32.4459 54.2603 33.3493 55.704L33.3493 55.704ZM28.7678 40.5804C27.8328 38.1893 27.0655 35.8435 26.4633 33.5734C28.5863 33.0564 30.877 32.6191 33.3506 32.296C32.4473 33.7398 31.5631 35.2165 30.7258 36.7524C30.0286 38.0243 29.3851 39.303 28.7678 40.5804L28.7678 40.5804ZM44 22.8209C45.749 24.6648 47.4678 26.7575 49.1274 29.0263C47.4554 28.9286 45.7463 28.875 44 28.875C42.2537 28.875 40.5446 28.9286 38.8726 29.0263C40.5323 26.7575 42.251 24.6648 44 22.8209L44 22.8209ZM57.2756 36.7524C56.4382 35.2179 55.5541 33.7411 54.6507 32.296C57.1244 32.6191 59.4151 33.0564 61.5381 33.5734C60.9359 35.8449 60.1686 38.1906 59.2336 40.5804C58.6149 39.303 57.9714 38.0243 57.2756 36.7524L57.2756 36.7524ZM25.1831 27.1618C24.4324 20.9069 25.5269 16.4863 28.1861 15.037C28.8571 14.6699 29.634 14.4911 30.4975 14.4911C33.055 14.4911 36.3798 16.0683 40.0098 19.0671C40.6917 19.6309 41.3751 20.2386 42.0558 20.8808C39.7279 23.3296 37.4564 26.1828 35.3073 29.3123C31.9206 29.6574 28.7403 30.2033 25.8308 30.9155C25.5585 29.6313 25.3289 28.3704 25.1831 27.1618L25.1831 27.1618ZM11 44C11 40.425 15.7713 36.7084 23.8109 34.2925C24.6441 37.4261 25.7868 40.6918 27.2085 44C25.7868 47.3096 24.6441 50.5753 23.8109 53.7075C15.7713 51.2916 11 47.575 11 44L11 44ZM40.0097 68.9343C35.156 72.9451 30.8495 74.4191 28.1861 72.9644C25.5269 71.5138 24.4338 67.0931 25.1831 60.8396C25.3275 59.631 25.5585 58.3701 25.828 57.0873C28.7389 57.8009 31.9193 58.3454 35.3045 58.6905C37.455 61.8186 39.7251 64.6731 42.053 67.122C41.3737 67.7628 40.6917 68.3705 40.0097 68.9343L40.0097 68.9343ZM62.8169 60.8383C63.5676 67.0931 62.4731 71.5138 59.8139 72.963C57.1546 74.4191 52.8454 72.9438 47.9902 68.9329C47.3083 68.3691 46.6249 67.7614 45.9443 67.1193C48.2721 64.6704 50.5436 61.8173 52.6928 58.6878C56.0794 58.3426 59.2598 57.7968 62.1693 57.0845C62.4415 58.3688 62.6711 59.6296 62.8169 60.8383L62.8169 60.8383ZM64.1891 53.7075C63.3559 50.5739 62.2132 47.3083 60.7915 44C62.2132 40.6904 63.3559 37.4248 64.1891 34.2925C72.2287 36.7084 77 40.425 77 44C77 47.575 72.2287 51.2916 64.1891 53.7075L64.1891 53.7075Z" id="Shape" fill="url(#gradient_2)" fill-rule="evenodd" stroke="none" />
  </g>
</svg>