<?xml version="1.0" encoding="utf-8"?>
<svg width="88px" height="88px" viewBox="0 0 88 88" version="1.1" xmlns:xlink="http://www.w3.org/1999/xlink" xmlns="http://www.w3.org/2000/svg">
  <defs>
    <path d="M88 0L88 0L88 88L0 88L0 0L88 0Z" id="path_1" />
    <clipPath id="clip_1">
      <use xlink:href="#path_1" />
    </clipPath>
  </defs>
  <g id="React" clip-path="url(#clip_1)">
    <path d="M88 0L88 0L88 88L0 88L0 0L88 0Z" id="React" fill="none" stroke="none" />
    <path d="M44 63.58C18.9156 63.58 0 55.374 0 44C0 32.626 18.9156 24.2 44 24.2C69.0844 24.2 88 32.626 88 44C88 55.374 69.0844 63.58 44 63.58L44 63.58ZM44 30.6504C22.5962 30.6504 6.325 37.8356 6.325 44.1386C6.325 50.4416 22.5962 57.3496 44 57.3496C65.4038 57.3496 81.675 50.1644 81.675 43.8614C81.675 37.5584 65.4038 30.6504 44 30.6504L44 30.6504Z" id="Shape" fill="#4E7AB5" fill-rule="evenodd" stroke="none" />
    <path d="M27.2844 83.6C27.2822 83.6 27.2844 83.6 27.2844 83.6C25.2362 83.6 23.3662 83.1248 21.7228 82.1876C19.0388 80.6542 17.1138 77.946 16.1524 74.3512C13.6312 64.9308 17.699 49.0908 26.521 33.9944C36.872 16.2954 50.6154 4.40659 60.7178 4.40659C62.7638 4.40659 64.6338 4.88179 66.2772 5.81899C68.9568 7.34799 70.884 10.054 71.8454 13.6466C74.3688 23.067 70.2988 38.9092 61.4724 54.0056C51.1302 71.7068 37.389 83.6 27.2844 83.6L27.2844 83.6ZM60.7178 11.0066C54.3642 11.0066 42.218 20.2312 32.219 37.3252C23.1484 52.8484 20.4886 65.725 22.5302 72.644C23.0824 74.5118 23.8612 75.8076 24.9964 76.4544C30.1906 79.42 44.3762 70.1844 55.7766 50.677C64.8516 35.1516 67.7886 22.55 65.4698 15.356C64.8736 13.5058 64.141 12.199 63.008 11.5544C62.3634 11.1848 61.6132 11.0066 60.7178 11.0066L60.7178 11.0066Z" id="Shape" fill="#4E7AB5" fill-rule="evenodd" stroke="none" />
    <path d="M60.7178 83.5934C60.7178 83.5934 60.7178 83.5934 60.7178 83.5934C50.6044 83.5912 36.8632 71.7024 26.521 54.0056C17.699 38.9092 13.6312 23.067 16.1524 13.6488C17.1138 10.054 19.0388 7.34579 21.7206 5.81459C23.3662 4.87519 25.2362 4.39999 27.28 4.39999C37.389 4.39999 51.128 16.2932 61.4724 33.9944C70.2966 49.0886 74.3644 64.9308 71.8432 74.3534C70.8796 77.946 68.9546 80.652 66.2772 82.181C64.6338 83.1182 62.7616 83.5934 60.7178 83.5934L60.7178 83.5934ZM27.28 11C26.3846 11 25.6366 11.1804 24.992 11.5456C23.859 12.1924 23.0692 13.4838 22.528 15.356C20.4864 22.4136 23.1462 35.1538 32.2168 50.677C42.207 67.7688 54.3554 76.9934 60.7156 76.9934L60.7156 76.9934C61.6132 76.9934 62.3612 76.813 63.0058 76.4456C64.1366 75.8032 64.9484 74.5184 65.4654 72.644C67.3728 65.7228 64.8472 52.844 55.7744 37.323C45.7842 20.2268 33.638 11 27.28 11L27.28 11Z" id="Shape" fill="#4E7AB5" fill-rule="evenodd" stroke="none" />
    <path d="M51.7 44C51.7 48.257 48.257 51.7 44 51.7C39.743 51.7 36.3 48.257 36.3 44C36.3 39.743 39.743 36.3 44 36.3C48.257 36.3 51.7 39.743 51.7 44L51.7 44Z" id="Shape" fill="#8BB7F0" stroke="none" />
    <path d="M44 52.8C39.1468 52.8 35.2 48.8532 35.2 44C35.2 39.1468 39.1468 35.2 44 35.2C48.8532 35.2 52.8 39.1468 52.8 44C52.8 48.8532 48.8532 52.8 44 52.8L44 52.8ZM44 37.4C40.3612 37.4 37.4 40.3612 37.4 44C37.4 47.6388 40.3612 50.6 44 50.6C47.6388 50.6 50.6 47.6388 50.6 44C50.6 40.3612 47.6388 37.4 44 37.4L44 37.4Z" id="Shape" fill="#4E7AB5" fill-rule="evenodd" stroke="none" />
    <path d="M44 61.7496C20.5612 61.7496 2.2 53.9528 2.2 44C2.2 34.0472 20.5612 26.2504 44 26.2504C67.4388 26.2504 85.8 34.0472 85.8 44C85.8 53.9528 67.4388 61.7496 44 61.7496L44 61.7496ZM44 28.4504C22.5346 28.4504 4.4 35.5718 4.4 44C4.4 52.4282 22.5346 59.5496 44 59.5496C65.4654 59.5496 83.6 52.4304 83.6 44C83.6 35.5696 65.4654 28.4504 44 28.4504L44 28.4504Z" id="Shape" fill="#8BB7F0" fill-rule="evenodd" stroke="none" />
    <path d="M27.2844 81.4C27.2822 81.4 27.2844 81.4 27.2844 81.4C25.6234 81.4 24.1208 81.0216 22.8118 80.2758C20.6206 79.024 19.096 76.8394 18.2754 73.7814C15.8972 64.9 19.8792 49.7178 28.4174 35.1032C38.2338 18.326 51.5152 6.6066 60.7178 6.6066C62.3766 6.6066 63.8814 6.985 65.1882 7.7308C67.3772 8.9804 68.9018 11.1628 69.7224 14.2164C72.1006 23.0978 68.1186 38.28 59.576 52.8968C49.7662 69.6784 36.4892 81.4 27.2844 81.4L27.2844 81.4ZM60.7178 8.8066C52.393 8.8066 39.6088 20.3324 30.3204 36.2142C22.1914 50.1292 18.205 64.9968 20.4028 73.2138C21.065 75.6844 22.242 77.4158 23.9052 78.3662C24.8754 78.9184 26.0106 79.2 27.2822 79.2C35.6092 79.2 48.3912 67.672 57.673 51.7858C65.8064 37.8686 69.795 22.9988 67.5928 14.7862C66.9328 12.32 65.7558 10.5886 64.0948 9.64259C63.1246 9.0882 61.9894 8.8066 60.7178 8.8066L60.7178 8.8066Z" id="Shape" fill="#8BB7F0" fill-rule="evenodd" stroke="none" />
    <path d="M60.7178 81.3934C60.7178 81.3934 60.7178 81.3934 60.7178 81.3934C51.5064 81.3912 38.225 69.674 28.4196 52.8968C19.8792 38.2822 15.8994 23.1 18.2776 14.2186C19.096 11.1606 20.6206 8.97598 22.814 7.72418C24.1208 6.97838 25.6234 6.59998 27.28 6.59998C36.487 6.59998 49.7662 18.3216 59.5738 35.1032C68.1164 49.7156 72.0962 64.8978 69.7158 73.7836C68.8996 76.8394 67.375 79.0218 65.186 80.2692C63.8792 81.015 62.3766 81.3934 60.7178 81.3934L60.7178 81.3934ZM27.28 8.79998C26.0106 8.79998 24.8732 9.08158 23.903 9.63378C22.2398 10.5842 21.0628 12.3156 20.4006 14.7862C18.2028 23.001 22.1892 37.8708 30.3182 51.7858C39.6 67.6654 52.3864 79.1912 60.7178 79.1934L60.7178 79.1934C61.9894 79.1934 63.1268 78.9118 64.097 78.3574C65.7558 77.4114 66.9328 75.68 67.5928 73.2138C69.7928 64.9968 65.8064 50.127 57.6752 36.2142C48.3912 20.3302 35.6114 8.79998 27.28 8.79998L27.28 8.79998Z" id="Group" fill="#8BB7F0" fill-rule="evenodd" stroke="none" />
  </g>
</svg>