<?xml version="1.0" encoding="utf-8"?>
<svg width="88px" height="88px" viewBox="0 0 88 88" version="1.1" xmlns:xlink="http://www.w3.org/1999/xlink" xmlns="http://www.w3.org/2000/svg">
  <defs>
    <path d="M88 0L88 0L88 88L0 88L0 0L88 0Z" id="path_1" />
    <clipPath id="clip_1">
      <use xlink:href="#path_1" />
    </clipPath>
  </defs>
  <g id="SAP" clip-path="url(#clip_1)">
    <path d="M88 0L88 0L88 88L0 88L0 0L88 0Z" id="SAP" fill="none" stroke="none" />
    <path d="M0 22L0 66L45.8333 66L88 22L0 22L0 22Z" id="Shape" fill="#1976D2" stroke="none" />
    <path d="M50.4167 33L42.1667 33L42.1667 45.8333L42.1667 49.5L42.1667 50.4167L35.2 33L28.7833 33L23.122 47.4522C22.3795 44.2402 18.9805 43.021 16.8667 42.5333C11.3667 41.0667 11 40.3333 11 39.2333C11 36.4833 18.3333 37.7667 20.1667 38.5C20.7167 37.0333 21.8167 34.2833 21.8167 34.2833C21.8167 34.2833 19.8 33 13.5667 33C7.33333 33 5.5 36.85 5.5 39.2333C5.5 41.6167 6.78333 44.3667 10.2667 45.4667C13.9333 46.5667 16.6833 46.75 16.6833 48.5833C16.6833 50.4167 10.45 50.7833 6.96667 48.5833L5.5 53.35C5.5 53.35 7.51667 55 13.5667 55C16.8318 55 19.3728 54.0778 21.0467 52.7523L20.1667 55L26.5833 55L27.6833 51.7C28.9667 52.25 30.4333 52.6167 32.0833 52.6167C33.7333 52.6167 35.2 52.25 36.4833 51.7L37.5833 55L42.1667 55L44 55L47.6667 55L47.6667 49.5L50.4167 49.5C55 49.5 58.6667 45.8333 58.6667 41.25C58.6667 36.6667 55 33 50.4167 33L50.4167 33ZM32.0833 47.85C30.9833 47.85 30.0667 47.6667 29.3333 47.1167L32.0833 39.2333L34.8333 47.1167C34.1 47.6667 33.1833 47.85 32.0833 47.85L32.0833 47.85ZM50.4167 44L47.6667 44L47.6667 38.5L50.4167 38.5C51.8833 38.5 53.1667 39.7833 53.1667 41.25C53.1667 42.7167 51.8833 44 50.4167 44L50.4167 44Z" id="Shape" fill="#FFFFFF" fill-rule="evenodd" stroke="none" />
  </g>
</svg>