<?xml version="1.0" encoding="utf-8"?>
<svg width="88px" height="88px" viewBox="0 0 88 88" version="1.1" xmlns:xlink="http://www.w3.org/1999/xlink" xmlns="http://www.w3.org/2000/svg">
  <defs>
    <path d="M88 0L88 0L88 88L0 88L0 0L88 0Z" id="path_1" />
    <clipPath id="clip_1">
      <use xlink:href="#path_1" />
    </clipPath>
  </defs>
  <g id="Spring Boot" clip-path="url(#clip_1)">
    <path d="M88 0L88 0L88 88L0 88L0 0L88 0Z" id="Spring-Boot" fill="none" stroke="none" />
    <path d="M80.6337 43.3308C80.7602 35.519 79.0002 26.2295 75.3335 15.3303L72.4588 6.78333L68.5538 14.9105C68.3448 15.345 68.1065 15.7703 67.8572 16.1902C61.4423 10.6828 53.119 7.33333 44 7.33333C23.749 7.33333 7.33333 23.749 7.33333 44C7.33333 64.251 23.749 80.6667 44 80.6667C64.251 80.6667 80.6667 64.251 80.6667 44C80.6667 43.7745 80.6373 43.5563 80.6337 43.3308L80.6337 43.3308Z" id="Shape" fill="#8BC34A" stroke="none" />
    <path d="M72.2058 59.6897C66.4803 67.5767 56.3456 68.0002 46.8068 67.8333L34.375 67.8333L30.822 67.8333C38.94 64.9128 43.7708 64.218 48.7043 61.6C57.9957 56.7142 67.1806 46.024 69.0928 34.903C65.5545 45.6023 54.8313 54.7947 45.0597 58.5328C38.3643 61.0867 26.2717 63.5653 26.2717 63.5653L25.7822 63.2995C17.5505 59.158 17.3012 40.7257 32.2667 34.7747C38.819 32.1658 45.0872 33.5995 52.1657 31.8542C59.7227 29.9988 68.464 24.1395 72.0207 16.5C76.0027 28.7228 80.795 47.861 72.2058 59.6897L72.2058 59.6897L72.2058 59.6897ZM28.7247 70.4825C28.2077 71.1242 27.4175 71.5 26.5925 71.5C25.0837 71.5 23.8517 70.2588 23.8517 68.75C23.8517 67.2412 25.0928 66 26.5925 66C27.2177 66 27.8337 66.2163 28.3177 66.616C29.491 67.5675 29.6743 69.3092 28.7247 70.4825L28.7247 70.4825L28.7247 70.4825Z" id="Shape" fill="#FFFFFF" fill-rule="evenodd" stroke="none" />
  </g>
</svg>